<svg xmlns="http://www.w3.org/2000/svg" viewBox="0 0 64 64">
  <rect width="64" height="64" rx="14" fill="#070A0F"/>
  <path d="M16 44V20h16c5.5 0 9 2.8 9 7.2 0 2.7-1.3 4.8-3.7 6 3.1 1 4.9 3.3 4.9 6.4 0 4.6-3.7 7.4-9.8 7.4H16Zm7-14h8.4c1.9 0 3.1-1 3.1-2.7 0-1.6-1.2-2.6-3.1-2.6H23V30Zm0 12.3h9c2.1 0 3.3-1.1 3.3-2.9 0-1.7-1.2-2.8-3.3-2.8h-9v5.7Z" fill="#F5F7FA"/>
  <path d="M44.8 45.3c-4 0-7.1-1.2-9.4-3.3l3.2-4.6c1.9 1.7 4 2.5 6.3 2.5 1.9 0 3-.6 3-1.8 0-1.1-.8-1.5-4.4-2.4-4.4-1-7.2-2.6-7.2-7.1 0-4.3 3.4-7.2 8.7-7.2 3.5 0 6.1.9 8.3 2.7l-2.9 4.8c-1.8-1.3-3.7-2-5.5-2-1.7 0-2.6.7-2.6 1.7 0 1.2.9 1.6 4.6 2.5 4.6 1.1 7 2.9 7 7 0 4.6-3.6 7.2-9.1 7.2Z" fill="#23C7E8"/>
</svg>
